<svg xmlns="http://www.w3.org/2000/svg" width="1600" height="900" viewBox="0 0 1600 900">
<rect width="100%" height="100%" fill="#f7f9fc"/>
<text x="80" y="68" font-family="Microsoft YaHei, Segoe UI, sans-serif" font-size="34" font-weight="700" fill="#172033" text-anchor="start">障碍物压力波形对比</text>
<text x="80" y="105" font-family="Microsoft YaHei, Segoe UI, sans-serif" font-size="18" font-weight="400" fill="#657085" text-anchor="start">无障碍 · 113635 · 有障碍 · 113758 · 通道1 · 5点平滑 · 阴影为 ±1 标准差</text>
<rect x="80" y="155" width="1440" height="625" rx="18" fill="#ffffff" stroke="#e7ebf2"/>
<line x1="1050" y1="101" x2="1094" y2="101" stroke="#277da1" stroke-width="3"/>
<text x="1105" y="108" font-family="Microsoft YaHei, Segoe UI, sans-serif" font-size="18" font-weight="500" fill="#172033" text-anchor="start">无障碍 · 113635</text>
<line x1="1295" y1="101" x2="1339" y2="101" stroke="#e45756" stroke-width="3"/>
<text x="1350" y="108" font-family="Microsoft YaHei, Segoe UI, sans-serif" font-size="18" font-weight="500" fill="#172033" text-anchor="start">有障碍 · 113758</text>
<line x1="172.00" y1="210" x2="172.00" y2="700" stroke="#dfe5ee" stroke-width="1"/>
<text x="172.0" y="733" font-family="Microsoft YaHei, Segoe UI, sans-serif" font-size="16" font-weight="400" fill="#657085" text-anchor="middle">20</text>
<line x1="438.61" y1="210" x2="438.61" y2="700" stroke="#dfe5ee" stroke-width="1"/>
<text x="438.61290322580646" y="733" font-family="Microsoft YaHei, Segoe UI, sans-serif" font-size="16" font-weight="400" fill="#657085" text-anchor="middle">400</text>
<line x1="719.26" y1="210" x2="719.26" y2="700" stroke="#dfe5ee" stroke-width="1"/>
<text x="719.258064516129" y="733" font-family="Microsoft YaHei, Segoe UI, sans-serif" font-size="16" font-weight="400" fill="#657085" text-anchor="middle">800</text>
<line x1="999.90" y1="210" x2="999.90" y2="700" stroke="#dfe5ee" stroke-width="1"/>
<text x="999.9032258064516" y="733" font-family="Microsoft YaHei, Segoe UI, sans-serif" font-size="16" font-weight="400" fill="#657085" text-anchor="middle">1200</text>
<line x1="1280.55" y1="210" x2="1280.55" y2="700" stroke="#dfe5ee" stroke-width="1"/>
<text x="1280.5483870967741" y="733" font-family="Microsoft YaHei, Segoe UI, sans-serif" font-size="16" font-weight="400" fill="#657085" text-anchor="middle">1600</text>
<line x1="1477.00" y1="210" x2="1477.00" y2="700" stroke="#dfe5ee" stroke-width="1"/>
<text x="1477.0" y="733" font-family="Microsoft YaHei, Segoe UI, sans-serif" font-size="16" font-weight="400" fill="#657085" text-anchor="middle">1880</text>
<line x1="172" y1="700.00" x2="1477" y2="700.00" stroke="#dfe5ee" stroke-width="1"/>
<text x="157" y="706.0" font-family="Microsoft YaHei, Segoe UI, sans-serif" font-size="16" font-weight="400" fill="#657085" text-anchor="end">-2.0</text>
<line x1="172" y1="630.00" x2="1477" y2="630.00" stroke="#dfe5ee" stroke-width="1"/>
<text x="157" y="636.0" font-family="Microsoft YaHei, Segoe UI, sans-serif" font-size="16" font-weight="400" fill="#657085" text-anchor="end">-1.5</text>
<line x1="172" y1="560.00" x2="1477" y2="560.00" stroke="#dfe5ee" stroke-width="1"/>
<text x="157" y="566.0" font-family="Microsoft YaHei, Segoe UI, sans-serif" font-size="16" font-weight="400" fill="#657085" text-anchor="end">-1.0</text>
<line x1="172" y1="490.00" x2="1477" y2="490.00" stroke="#dfe5ee" stroke-width="1"/>
<text x="157" y="496.0" font-family="Microsoft YaHei, Segoe UI, sans-serif" font-size="16" font-weight="400" fill="#657085" text-anchor="end">-0.5</text>
<line x1="172" y1="420.00" x2="1477" y2="420.00" stroke="#dfe5ee" stroke-width="1"/>
<text x="157" y="426.0" font-family="Microsoft YaHei, Segoe UI, sans-serif" font-size="16" font-weight="400" fill="#657085" text-anchor="end">0.0</text>
<line x1="172" y1="350.00" x2="1477" y2="350.00" stroke="#dfe5ee" stroke-width="1"/>
<text x="157" y="356.0" font-family="Microsoft YaHei, Segoe UI, sans-serif" font-size="16" font-weight="400" fill="#657085" text-anchor="end">0.5</text>
<line x1="172" y1="280.00" x2="1477" y2="280.00" stroke="#dfe5ee" stroke-width="1"/>
<text x="157" y="286.0" font-family="Microsoft YaHei, Segoe UI, sans-serif" font-size="16" font-weight="400" fill="#657085" text-anchor="end">1.0</text>
<line x1="172" y1="210.00" x2="1477" y2="210.00" stroke="#dfe5ee" stroke-width="1"/>
<text x="157" y="216.0" font-family="Microsoft YaHei, Segoe UI, sans-serif" font-size="16" font-weight="400" fill="#657085" text-anchor="end">1.5</text>
<polygon points="172.00,338.68 179.02,341.58 186.03,345.98 193.05,347.09 200.06,358.96 207.08,369.33 214.10,363.70 221.11,353.69 228.13,343.90 235.15,340.49 242.16,335.82 249.18,333.15 256.19,330.98 263.21,329.52 270.23,325.32 277.24,320.42 284.26,314.07 291.27,311.71 298.29,308.95 305.31,304.50 312.32,300.99 319.34,296.05 326.35,291.14 333.37,287.39 340.39,284.98 347.40,287.07 354.42,294.66 361.44,304.24 368.45,314.73 375.47,325.38 382.48,337.61 389.50,347.15 396.52,353.08 403.53,357.31 410.55,361.83 417.56,360.68 424.58,360.62 431.60,361.65 438.61,361.52 445.63,361.19 452.65,359.81 459.66,356.71 466.68,352.56 473.69,350.16 480.71,351.82 487.73,353.67 494.74,357.82 501.76,365.08 508.77,370.51 515.79,372.93 522.81,374.61 529.82,374.99 536.84,373.21 543.85,371.67 550.87,368.85 557.89,366.98 564.90,366.41 571.92,366.56 578.94,366.88 585.95,367.35 592.97,369.73 599.98,374.41 607.00,378.67 614.02,383.86 621.03,385.74 628.05,383.83 635.06,383.22 642.08,382.05 649.10,380.08 656.11,378.67 663.13,376.79 670.15,374.33 677.16,373.61 684.18,372.52 691.19,371.78 698.21,372.60 705.23,373.39 712.24,376.46 719.26,381.73 726.27,387.32 733.29,390.48 740.31,393.56 747.32,394.25 754.34,393.75 761.35,394.83 768.37,395.27 775.39,393.17 782.40,389.09 789.42,385.78 796.44,382.32 803.45,380.16 810.47,380.81 817.48,383.12 824.50,384.98 831.52,387.04 838.53,389.17 845.55,391.40 852.56,395.24 859.58,399.96 866.60,403.47 873.61,404.47 880.63,403.91 887.65,403.96 894.66,403.82 901.68,404.53 908.69,406.36 915.71,408.98 922.73,409.06 929.74,408.34 936.76,407.69 943.77,404.82 950.79,401.94 957.81,403.52 964.82,404.25 971.84,409.69 978.85,417.13 985.87,418.79 992.89,415.31 999.90,414.62 1006.92,414.76 1013.94,415.03 1020.95,418.58 1027.97,420.96 1034.98,419.06 1042.00,413.05 1049.02,406.43 1056.03,403.20 1063.05,403.69 1070.06,403.21 1077.08,401.49 1084.10,401.59 1091.11,399.97 1098.13,400.56 1105.15,402.69 1112.16,406.39 1119.18,407.97 1126.19,408.55 1133.21,409.77 1140.23,411.49 1147.24,411.64 1154.26,412.76 1161.27,412.27 1168.29,408.88 1175.31,405.38 1182.32,404.30 1189.34,403.62 1196.35,406.12 1203.37,409.03 1210.39,408.01 1217.40,412.23 1224.42,414.55 1231.44,414.57 1238.45,414.95 1245.47,415.24 1252.48,412.05 1259.50,411.38 1266.52,412.32 1273.53,413.56 1280.55,417.34 1287.56,419.81 1294.58,420.44 1301.60,419.47 1308.61,419.47 1315.63,423.59 1322.65,426.81 1329.66,426.74 1336.68,422.93 1343.69,417.83 1350.71,413.73 1357.73,408.41 1364.74,401.27 1371.76,399.79 1378.77,398.19 1385.79,399.33 1392.81,406.85 1399.82,418.49 1406.84,426.80 1413.85,434.52 1420.87,435.64 1427.89,431.12 1434.90,426.80 1441.92,424.40 1448.94,433.62 1455.95,458.09 1462.97,497.23 1469.98,532.25 1477.00,563.17 1477.00,611.84 1469.98,573.40 1462.97,533.67 1455.95,497.64 1448.94,474.61 1441.92,464.73 1434.90,464.11 1427.89,464.78 1420.87,466.69 1413.85,469.89 1406.84,471.65 1399.82,471.27 1392.81,465.73 1385.79,458.80 1378.77,453.74 1371.76,449.65 1364.74,443.87 1357.73,447.28 1350.71,450.86 1343.69,450.99 1336.68,450.78 1329.66,453.28 1322.65,457.35 1315.63,462.19 1308.61,464.93 1301.60,462.52 1294.58,458.95 1287.56,455.20 1280.55,453.29 1273.53,455.23 1266.52,457.52 1259.50,456.81 1252.48,455.96 1245.47,456.55 1238.45,457.94 1231.44,461.34 1224.42,464.74 1217.40,467.03 1210.39,468.50 1203.37,467.24 1196.35,465.38 1189.34,464.72 1182.32,464.18 1175.31,462.84 1168.29,462.39 1161.27,465.20 1154.26,470.90 1147.24,476.04 1140.23,479.34 1133.21,479.18 1126.19,476.43 1119.18,472.00 1112.16,465.11 1105.15,459.72 1098.13,453.95 1091.11,447.97 1084.10,442.15 1077.08,438.07 1070.06,438.23 1063.05,442.80 1056.03,448.10 1049.02,450.06 1042.00,454.05 1034.98,456.24 1027.97,460.54 1020.95,465.56 1013.94,466.27 1006.92,465.14 999.90,459.35 992.89,450.44 985.87,442.19 978.85,441.65 971.84,441.72 964.82,443.80 957.81,447.16 950.79,448.34 943.77,450.55 936.76,452.11 929.74,450.96 922.73,446.90 915.71,443.38 908.69,440.64 901.68,442.01 894.66,445.76 887.65,448.53 880.63,452.10 873.61,449.64 866.60,445.24 859.58,442.52 852.56,441.53 845.55,439.28 838.53,436.71 831.52,434.93 824.50,431.95 817.48,428.43 810.47,428.17 803.45,426.80 796.44,423.27 789.42,424.02 782.40,425.74 775.39,429.20 768.37,434.94 761.35,437.98 754.34,437.03 747.32,433.67 740.31,427.18 733.29,420.49 726.27,418.27 719.26,416.50 712.24,413.44 705.23,410.69 698.21,409.44 691.19,408.71 684.18,409.77 677.16,411.10 670.15,413.13 663.13,416.22 656.11,417.69 649.10,419.24 642.08,418.91 635.06,416.04 628.05,414.35 621.03,413.12 614.02,414.92 607.00,420.20 599.98,423.65 592.97,422.15 585.95,418.69 578.94,414.62 571.92,413.62 564.90,417.39 557.89,421.30 550.87,426.12 543.85,430.22 536.84,432.45 529.82,430.54 522.81,428.54 515.79,426.03 508.77,423.03 501.76,419.43 494.74,414.61 487.73,410.04 480.71,405.32 473.69,400.97 466.68,398.75 459.66,402.25 452.65,406.99 445.63,412.67 438.61,422.44 431.60,432.21 424.58,440.30 417.56,445.60 410.55,446.99 403.53,442.55 396.52,433.04 389.50,420.24 382.48,405.17 375.47,388.94 368.45,373.41 361.44,361.09 354.42,353.90 347.40,351.31 340.39,351.31 333.37,352.91 326.35,354.37 319.34,356.06 312.32,359.13 305.31,360.79 298.29,364.25 291.27,367.11 284.26,367.51 277.24,367.59 270.23,362.92 263.21,363.99 256.19,362.72 249.18,365.00 242.16,365.13 235.15,372.32 228.13,374.76 221.11,382.68 214.10,392.84 207.08,394.31 200.06,385.73 193.05,371.54 186.03,368.56 179.02,363.16 172.00,366.01" fill="#277da1" opacity="0.13"/>
<path d="M 172.00 352.35 L 179.02 352.37 L 186.03 357.27 L 193.05 359.31 L 200.06 372.35 L 207.08 381.82 L 214.10 378.27 L 221.11 368.18 L 228.13 359.33 L 235.15 356.41 L 242.16 350.48 L 249.18 349.08 L 256.19 346.85 L 263.21 346.75 L 270.23 344.12 L 277.24 344.00 L 284.26 340.79 L 291.27 339.41 L 298.29 336.60 L 305.31 332.64 L 312.32 330.06 L 319.34 326.05 L 326.35 322.75 L 333.37 320.15 L 340.39 318.14 L 347.40 319.19 L 354.42 324.28 L 361.44 332.67 L 368.45 344.07 L 375.47 357.16 L 382.48 371.39 L 389.50 383.69 L 396.52 393.06 L 403.53 399.93 L 410.55 404.41 L 417.56 403.14 L 424.58 400.46 L 431.60 396.93 L 438.61 391.98 L 445.63 386.93 L 452.65 383.40 L 459.66 379.48 L 466.68 375.65 L 473.69 375.56 L 480.71 378.57 L 487.73 381.86 L 494.74 386.22 L 501.76 392.26 L 508.77 396.77 L 515.79 399.48 L 522.81 401.58 L 529.82 402.76 L 536.84 402.83 L 543.85 400.94 L 550.87 397.48 L 557.89 394.14 L 564.90 391.90 L 571.92 390.09 L 578.94 390.75 L 585.95 393.02 L 592.97 395.94 L 599.98 399.03 L 607.00 399.43 L 614.02 399.39 L 621.03 399.43 L 628.05 399.09 L 635.06 399.63 L 642.08 400.48 L 649.10 399.66 L 656.11 398.18 L 663.13 396.51 L 670.15 393.73 L 677.16 392.35 L 684.18 391.14 L 691.19 390.25 L 698.21 391.02 L 705.23 392.04 L 712.24 394.95 L 719.26 399.12 L 726.27 402.79 L 733.29 405.48 L 740.31 410.37 L 747.32 413.96 L 754.34 415.39 L 761.35 416.41 L 768.37 415.10 L 775.39 411.18 L 782.40 407.42 L 789.42 404.90 L 796.44 402.80 L 803.45 403.48 L 810.47 404.49 L 817.48 405.77 L 824.50 408.46 L 831.52 410.98 L 838.53 412.94 L 845.55 415.34 L 852.56 418.38 L 859.58 421.24 L 866.60 424.36 L 873.61 427.05 L 880.63 428.00 L 887.65 426.25 L 894.66 424.79 L 901.68 423.27 L 908.69 423.50 L 915.71 426.18 L 922.73 427.98 L 929.74 429.65 L 936.76 429.90 L 943.77 427.69 L 950.79 425.14 L 957.81 425.34 L 964.82 424.02 L 971.84 425.70 L 978.85 429.39 L 985.87 430.49 L 992.89 432.88 L 999.90 436.99 L 1006.92 439.95 L 1013.94 440.65 L 1020.95 442.07 L 1027.97 440.75 L 1034.98 437.65 L 1042.00 433.55 L 1049.02 428.24 L 1056.03 425.65 L 1063.05 423.24 L 1070.06 420.72 L 1077.08 419.78 L 1084.10 421.87 L 1091.11 423.97 L 1098.13 427.25 L 1105.15 431.20 L 1112.16 435.75 L 1119.18 439.98 L 1126.19 442.49 L 1133.21 444.47 L 1140.23 445.41 L 1147.24 443.84 L 1154.26 441.83 L 1161.27 438.73 L 1168.29 435.63 L 1175.31 434.11 L 1182.32 434.24 L 1189.34 434.17 L 1196.35 435.75 L 1203.37 438.13 L 1210.39 438.26 L 1217.40 439.63 L 1224.42 439.65 L 1231.44 437.95 L 1238.45 436.45 L 1245.47 435.89 L 1252.48 434.00 L 1259.50 434.09 L 1266.52 434.92 L 1273.53 434.40 L 1280.55 435.31 L 1287.56 437.51 L 1294.58 439.69 L 1301.60 441.00 L 1308.61 442.20 L 1315.63 442.89 L 1322.65 442.08 L 1329.66 440.01 L 1336.68 436.86 L 1343.69 434.41 L 1350.71 432.30 L 1357.73 427.84 L 1364.74 422.57 L 1371.76 424.72 L 1378.77 425.97 L 1385.79 429.06 L 1392.81 436.29 L 1399.82 444.88 L 1406.84 449.22 L 1413.85 452.20 L 1420.87 451.17 L 1427.89 447.95 L 1434.90 445.45 L 1441.92 444.56 L 1448.94 454.11 L 1455.95 477.86 L 1462.97 515.45 L 1469.98 552.83 L 1477.00 587.51" fill="none" stroke="#277da1" stroke-width="2.4" stroke-linejoin="round"/>
<polygon points="172.00,336.09 179.02,342.86 186.03,353.18 193.05,359.41 200.06,371.33 207.08,380.17 214.10,375.31 221.11,365.87 228.13,355.09 235.15,348.78 242.16,347.05 249.18,352.39 256.19,353.79 263.21,349.49 270.23,347.70 277.24,346.83 284.26,345.60 291.27,347.24 298.29,348.97 305.31,350.31 312.32,349.60 319.34,341.91 326.35,332.98 333.37,326.32 340.39,324.82 347.40,325.50 354.42,330.82 361.44,342.33 368.45,357.22 375.47,371.47 382.48,388.43 389.50,404.02 396.52,415.44 403.53,422.30 410.55,424.70 417.56,423.74 424.58,419.57 431.60,413.66 438.61,406.93 445.63,399.81 452.65,394.39 459.66,389.15 466.68,384.20 473.69,382.60 480.71,385.07 487.73,387.52 494.74,390.37 501.76,393.17 508.77,394.61 515.79,398.32 522.81,401.99 529.82,406.22 536.84,412.53 543.85,414.76 550.87,410.82 557.89,406.27 564.90,402.49 571.92,396.98 578.94,397.20 585.95,398.13 592.97,399.03 599.98,400.31 607.00,400.38 614.02,401.66 621.03,402.08 628.05,400.37 635.06,399.07 642.08,397.66 649.10,396.85 656.11,397.68 663.13,399.72 670.15,401.47 677.16,404.08 684.18,405.49 691.19,404.93 698.21,403.31 705.23,398.64 712.24,395.50 719.26,394.42 726.27,394.71 733.29,396.35 740.31,397.98 747.32,398.15 754.34,398.02 761.35,402.11 768.37,406.07 775.39,406.64 782.40,408.84 789.42,412.78 796.44,413.82 803.45,412.96 810.47,410.47 817.48,407.70 824.50,405.61 831.52,406.36 838.53,411.42 845.55,416.81 852.56,420.22 859.58,423.75 866.60,424.87 873.61,425.10 880.63,424.37 887.65,423.26 894.66,419.38 901.68,417.49 908.69,419.22 915.71,422.62 922.73,421.71 929.74,420.17 936.76,417.28 943.77,414.91 950.79,413.77 957.81,414.36 964.82,419.42 971.84,423.58 978.85,421.79 985.87,418.44 992.89,413.84 999.90,414.34 1006.92,417.80 1013.94,420.60 1020.95,423.62 1027.97,426.76 1034.98,429.53 1042.00,431.74 1049.02,432.31 1056.03,430.40 1063.05,430.61 1070.06,429.23 1077.08,425.73 1084.10,425.44 1091.11,425.97 1098.13,428.40 1105.15,432.92 1112.16,437.75 1119.18,442.97 1126.19,446.72 1133.21,443.43 1140.23,437.55 1147.24,433.47 1154.26,434.09 1161.27,435.21 1168.29,434.44 1175.31,430.37 1182.32,425.86 1189.34,422.87 1196.35,421.95 1203.37,422.78 1210.39,425.60 1217.40,426.74 1224.42,427.45 1231.44,427.98 1238.45,428.35 1245.47,428.91 1252.48,428.79 1259.50,427.91 1266.52,426.93 1273.53,426.44 1280.55,425.55 1287.56,421.05 1294.58,415.75 1301.60,410.94 1308.61,408.83 1315.63,407.42 1322.65,404.56 1329.66,400.61 1336.68,396.65 1343.69,392.49 1350.71,388.61 1357.73,381.51 1364.74,370.96 1371.76,363.55 1378.77,366.52 1385.79,367.57 1392.81,369.30 1399.82,375.11 1406.84,376.65 1413.85,379.52 1420.87,380.47 1427.89,377.54 1434.90,371.97 1441.92,364.60 1448.94,359.61 1455.95,363.40 1462.97,377.17 1469.98,390.92 1477.00,406.34 1477.00,510.50 1469.98,481.94 1462.97,452.93 1455.95,425.66 1448.94,412.24 1441.92,410.42 1434.90,416.60 1427.89,425.81 1420.87,435.26 1413.85,439.66 1406.84,436.89 1399.82,426.45 1392.81,410.41 1385.79,396.88 1378.77,390.63 1371.76,390.66 1364.74,396.97 1357.73,409.58 1350.71,420.88 1343.69,430.36 1336.68,438.68 1329.66,439.53 1322.65,440.29 1315.63,443.32 1308.61,449.18 1301.60,454.19 1294.58,455.02 1287.56,453.87 1280.55,451.00 1273.53,448.56 1266.52,448.91 1259.50,449.88 1252.48,452.12 1245.47,456.31 1238.45,460.55 1231.44,461.90 1224.42,460.98 1217.40,458.10 1210.39,454.73 1203.37,453.88 1196.35,452.99 1189.34,453.62 1182.32,455.16 1175.31,455.91 1168.29,456.03 1161.27,460.37 1154.26,465.95 1147.24,468.12 1140.23,465.22 1133.21,463.04 1126.19,459.47 1119.18,459.31 1112.16,463.33 1105.15,465.26 1098.13,463.74 1091.11,461.65 1084.10,461.10 1077.08,456.62 1070.06,453.12 1063.05,454.27 1056.03,457.35 1049.02,459.21 1042.00,462.43 1034.98,462.60 1027.97,461.04 1020.95,458.25 1013.94,454.45 1006.92,452.41 999.90,453.60 992.89,455.24 985.87,454.26 978.85,451.57 971.84,451.72 964.82,458.41 957.81,465.09 950.79,464.53 943.77,464.99 936.76,460.73 929.74,452.90 922.73,447.77 915.71,450.48 908.69,457.99 901.68,466.08 894.66,470.96 887.65,469.99 880.63,466.64 873.61,462.59 866.60,460.02 859.58,459.57 852.56,462.75 845.55,462.48 838.53,462.29 831.52,462.49 824.50,461.53 817.48,457.14 810.47,455.36 803.45,454.30 796.44,452.94 789.42,453.46 782.40,454.85 775.39,456.17 768.37,456.12 761.35,453.12 754.34,446.58 747.32,439.22 740.31,431.14 733.29,425.70 726.27,426.63 719.26,430.21 712.24,434.73 705.23,437.40 698.21,437.44 691.19,439.04 684.18,437.45 677.16,434.21 670.15,430.27 663.13,427.21 656.11,427.52 649.10,428.66 642.08,430.63 635.06,433.39 628.05,434.74 621.03,434.98 614.02,435.14 607.00,434.13 599.98,431.45 592.97,430.89 585.95,429.82 578.94,430.70 571.92,434.53 564.90,437.18 557.89,437.92 550.87,438.09 543.85,439.11 536.84,443.30 529.82,443.80 522.81,444.92 515.79,444.53 508.77,441.26 501.76,433.54 494.74,429.66 487.73,427.70 480.71,427.42 473.69,428.77 466.68,427.89 459.66,428.58 452.65,429.08 445.63,429.67 438.61,434.72 431.60,444.00 424.58,453.57 417.56,463.18 410.55,469.93 403.53,467.92 396.52,463.28 389.50,453.36 382.48,440.73 375.47,428.96 368.45,415.28 361.44,401.67 354.42,389.36 347.40,378.83 340.39,370.93 333.37,366.93 326.35,364.16 319.34,362.69 312.32,362.06 305.31,364.12 298.29,370.16 291.27,374.20 284.26,375.42 277.24,377.51 270.23,377.20 263.21,374.77 256.19,368.21 249.18,368.80 242.16,369.51 235.15,375.97 228.13,379.13 221.11,383.32 214.10,394.63 207.08,399.89 200.06,390.14 193.05,374.82 186.03,373.13 179.02,369.39 172.00,372.19" fill="#e45756" opacity="0.13"/>
<path d="M 172.00 354.14 L 179.02 356.12 L 186.03 363.16 L 193.05 367.11 L 200.06 380.73 L 207.08 390.03 L 214.10 384.97 L 221.11 374.60 L 228.13 367.11 L 235.15 362.37 L 242.16 358.28 L 249.18 360.60 L 256.19 361.00 L 263.21 362.13 L 270.23 362.45 L 277.24 362.17 L 284.26 360.51 L 291.27 360.72 L 298.29 359.56 L 305.31 357.21 L 312.32 355.83 L 319.34 352.30 L 326.35 348.57 L 333.37 346.62 L 340.39 347.88 L 347.40 352.17 L 354.42 360.09 L 361.44 372.00 L 368.45 386.25 L 375.47 400.21 L 382.48 414.58 L 389.50 428.69 L 396.52 439.36 L 403.53 445.11 L 410.55 447.32 L 417.56 443.46 L 424.58 436.57 L 431.60 428.83 L 438.61 420.83 L 445.63 414.74 L 452.65 411.74 L 459.66 408.86 L 466.68 406.05 L 473.69 405.68 L 480.71 406.25 L 487.73 407.61 L 494.74 410.02 L 501.76 413.36 L 508.77 417.93 L 515.79 421.43 L 522.81 423.46 L 529.82 425.01 L 536.84 427.91 L 543.85 426.93 L 550.87 424.46 L 557.89 422.10 L 564.90 419.83 L 571.92 415.75 L 578.94 413.95 L 585.95 413.97 L 592.97 414.96 L 599.98 415.88 L 607.00 417.25 L 614.02 418.40 L 621.03 418.53 L 628.05 417.56 L 635.06 416.23 L 642.08 414.14 L 649.10 412.75 L 656.11 412.60 L 663.13 413.47 L 670.15 415.87 L 677.16 419.15 L 684.18 421.47 L 691.19 421.98 L 698.21 420.37 L 705.23 418.02 L 712.24 415.11 L 719.26 412.31 L 726.27 410.67 L 733.29 411.03 L 740.31 414.56 L 747.32 418.68 L 754.34 422.30 L 761.35 427.61 L 768.37 431.09 L 775.39 431.41 L 782.40 431.84 L 789.42 433.12 L 796.44 433.38 L 803.45 433.63 L 810.47 432.91 L 817.48 432.42 L 824.50 433.57 L 831.52 434.43 L 838.53 436.85 L 845.55 439.65 L 852.56 441.49 L 859.58 441.66 L 866.60 442.45 L 873.61 443.85 L 880.63 445.51 L 887.65 446.63 L 894.66 445.17 L 901.68 441.79 L 908.69 438.60 L 915.71 436.55 L 922.73 434.74 L 929.74 436.54 L 936.76 439.01 L 943.77 439.95 L 950.79 439.15 L 957.81 439.73 L 964.82 438.91 L 971.84 437.65 L 978.85 436.68 L 985.87 436.35 L 992.89 434.54 L 999.90 433.97 L 1006.92 435.11 L 1013.94 437.53 L 1020.95 440.93 L 1027.97 443.90 L 1034.98 446.07 L 1042.00 447.09 L 1049.02 445.76 L 1056.03 443.88 L 1063.05 442.44 L 1070.06 441.17 L 1077.08 441.17 L 1084.10 443.27 L 1091.11 443.81 L 1098.13 446.07 L 1105.15 449.09 L 1112.16 450.54 L 1119.18 451.14 L 1126.19 453.09 L 1133.21 453.23 L 1140.23 451.38 L 1147.24 450.80 L 1154.26 450.02 L 1161.27 447.79 L 1168.29 445.23 L 1175.31 443.14 L 1182.32 440.51 L 1189.34 438.24 L 1196.35 437.47 L 1203.37 438.33 L 1210.39 440.16 L 1217.40 442.42 L 1224.42 444.22 L 1231.44 444.94 L 1238.45 444.45 L 1245.47 442.61 L 1252.48 440.45 L 1259.50 438.90 L 1266.52 437.92 L 1273.53 437.50 L 1280.55 438.27 L 1287.56 437.46 L 1294.58 435.39 L 1301.60 432.57 L 1308.61 429.01 L 1315.63 425.37 L 1322.65 422.43 L 1329.66 420.07 L 1336.68 417.67 L 1343.69 411.43 L 1350.71 404.75 L 1357.73 395.55 L 1364.74 383.97 L 1371.76 377.10 L 1378.77 378.57 L 1385.79 382.23 L 1392.81 389.85 L 1399.82 400.78 L 1406.84 406.77 L 1413.85 409.59 L 1420.87 407.86 L 1427.89 401.68 L 1434.90 394.29 L 1441.92 387.51 L 1448.94 385.92 L 1455.95 394.53 L 1462.97 415.05 L 1469.98 436.43 L 1477.00 458.42" fill="none" stroke="#e45756" stroke-width="2.4" stroke-linejoin="round"/>
<line x1="1477.00" y1="210" x2="1477.00" y2="700" stroke="#8d97a8" stroke-width="1.2"/>
<rect x="1167.00" y="225" width="300" height="55" rx="9" fill="#ffffff" opacity="0.93" stroke="#dfe5ee"/>
<text x="1182" y="259" font-family="Microsoft YaHei, Segoe UI, sans-serif" font-size="16" font-weight="500" fill="#657085" text-anchor="start">最大均值差 1880 mm · 0.922 Pa</text>
<text x="824.5" y="772" font-family="Microsoft YaHei, Segoe UI, sans-serif" font-size="18" font-weight="500" fill="#172033" text-anchor="middle">滑台距离 (mm)</text>
<text x="112" y="455.0" transform="rotate(-90 112 455.0)" font-family="Microsoft YaHei, Segoe UI, sans-serif" font-size="18" font-weight="500" fill="#172033" text-anchor="middle">压力 (Pa)</text>
<text x="80" y="835" font-family="Microsoft YaHei, Segoe UI, sans-serif" font-size="16" font-weight="400" fill="#657085" text-anchor="start">两组各10次实验；RMS差异 0.203 Pa；完整波形留一验证 100.0%；1600→1770 mm斜坡 85.0%。</text>
</svg>