<svg xmlns="http://www.w3.org/2000/svg" width="1600" height="900" viewBox="0 0 1600 900">
<rect width="100%" height="100%" fill="#f7f9fc"/>
<text x="80" y="68" font-family="Microsoft YaHei, Segoe UI, sans-serif" font-size="34" font-weight="700" fill="#172033" text-anchor="start">障碍物压力波形对比</text>
<text x="80" y="105" font-family="Microsoft YaHei, Segoe UI, sans-serif" font-size="18" font-weight="400" fill="#657085" text-anchor="start">无障碍 · 105840 · 有障碍 · 110015 · 通道1 · 5点平滑 · 阴影为 ±1 标准差</text>
<rect x="80" y="155" width="1440" height="625" rx="18" fill="#ffffff" stroke="#e7ebf2"/>
<line x1="1050" y1="101" x2="1094" y2="101" stroke="#277da1" stroke-width="3"/>
<text x="1105" y="108" font-family="Microsoft YaHei, Segoe UI, sans-serif" font-size="18" font-weight="500" fill="#172033" text-anchor="start">无障碍 · 105840</text>
<line x1="1295" y1="101" x2="1339" y2="101" stroke="#e45756" stroke-width="3"/>
<text x="1350" y="108" font-family="Microsoft YaHei, Segoe UI, sans-serif" font-size="18" font-weight="500" fill="#172033" text-anchor="start">有障碍 · 110015</text>
<line x1="172.00" y1="210" x2="172.00" y2="700" stroke="#dfe5ee" stroke-width="1"/>
<text x="172.0" y="733" font-family="Microsoft YaHei, Segoe UI, sans-serif" font-size="16" font-weight="400" fill="#657085" text-anchor="middle">20</text>
<line x1="438.61" y1="210" x2="438.61" y2="700" stroke="#dfe5ee" stroke-width="1"/>
<text x="438.61290322580646" y="733" font-family="Microsoft YaHei, Segoe UI, sans-serif" font-size="16" font-weight="400" fill="#657085" text-anchor="middle">400</text>
<line x1="719.26" y1="210" x2="719.26" y2="700" stroke="#dfe5ee" stroke-width="1"/>
<text x="719.258064516129" y="733" font-family="Microsoft YaHei, Segoe UI, sans-serif" font-size="16" font-weight="400" fill="#657085" text-anchor="middle">800</text>
<line x1="999.90" y1="210" x2="999.90" y2="700" stroke="#dfe5ee" stroke-width="1"/>
<text x="999.9032258064516" y="733" font-family="Microsoft YaHei, Segoe UI, sans-serif" font-size="16" font-weight="400" fill="#657085" text-anchor="middle">1200</text>
<line x1="1280.55" y1="210" x2="1280.55" y2="700" stroke="#dfe5ee" stroke-width="1"/>
<text x="1280.5483870967741" y="733" font-family="Microsoft YaHei, Segoe UI, sans-serif" font-size="16" font-weight="400" fill="#657085" text-anchor="middle">1600</text>
<line x1="1477.00" y1="210" x2="1477.00" y2="700" stroke="#dfe5ee" stroke-width="1"/>
<text x="1477.0" y="733" font-family="Microsoft YaHei, Segoe UI, sans-serif" font-size="16" font-weight="400" fill="#657085" text-anchor="middle">1880</text>
<line x1="172" y1="700.00" x2="1477" y2="700.00" stroke="#dfe5ee" stroke-width="1"/>
<text x="157" y="706.0" font-family="Microsoft YaHei, Segoe UI, sans-serif" font-size="16" font-weight="400" fill="#657085" text-anchor="end">-2.0</text>
<line x1="172" y1="630.00" x2="1477" y2="630.00" stroke="#dfe5ee" stroke-width="1"/>
<text x="157" y="636.0" font-family="Microsoft YaHei, Segoe UI, sans-serif" font-size="16" font-weight="400" fill="#657085" text-anchor="end">-1.5</text>
<line x1="172" y1="560.00" x2="1477" y2="560.00" stroke="#dfe5ee" stroke-width="1"/>
<text x="157" y="566.0" font-family="Microsoft YaHei, Segoe UI, sans-serif" font-size="16" font-weight="400" fill="#657085" text-anchor="end">-1.0</text>
<line x1="172" y1="490.00" x2="1477" y2="490.00" stroke="#dfe5ee" stroke-width="1"/>
<text x="157" y="496.0" font-family="Microsoft YaHei, Segoe UI, sans-serif" font-size="16" font-weight="400" fill="#657085" text-anchor="end">-0.5</text>
<line x1="172" y1="420.00" x2="1477" y2="420.00" stroke="#dfe5ee" stroke-width="1"/>
<text x="157" y="426.0" font-family="Microsoft YaHei, Segoe UI, sans-serif" font-size="16" font-weight="400" fill="#657085" text-anchor="end">0.0</text>
<line x1="172" y1="350.00" x2="1477" y2="350.00" stroke="#dfe5ee" stroke-width="1"/>
<text x="157" y="356.0" font-family="Microsoft YaHei, Segoe UI, sans-serif" font-size="16" font-weight="400" fill="#657085" text-anchor="end">0.5</text>
<line x1="172" y1="280.00" x2="1477" y2="280.00" stroke="#dfe5ee" stroke-width="1"/>
<text x="157" y="286.0" font-family="Microsoft YaHei, Segoe UI, sans-serif" font-size="16" font-weight="400" fill="#657085" text-anchor="end">1.0</text>
<line x1="172" y1="210.00" x2="1477" y2="210.00" stroke="#dfe5ee" stroke-width="1"/>
<text x="157" y="216.0" font-family="Microsoft YaHei, Segoe UI, sans-serif" font-size="16" font-weight="400" fill="#657085" text-anchor="end">1.5</text>
<polygon points="172.00,329.58 179.02,335.14 186.03,340.57 193.05,344.55 200.06,352.51 207.08,357.41 214.10,349.80 221.11,343.93 228.13,332.12 235.15,327.67 242.16,318.12 249.18,317.02 256.19,313.62 263.21,314.35 270.23,310.52 277.24,309.90 284.26,304.99 291.27,301.91 298.29,297.58 305.31,291.53 312.32,288.38 319.34,285.10 326.35,280.85 333.37,278.42 340.39,277.47 347.40,276.04 354.42,278.50 361.44,284.75 368.45,293.92 375.47,301.61 382.48,309.22 389.50,315.31 396.52,321.04 403.53,328.63 410.55,334.55 417.56,336.20 424.58,333.79 431.60,328.42 438.61,324.51 445.63,317.60 452.65,312.71 459.66,311.04 466.68,310.76 473.69,312.11 480.71,315.65 487.73,318.84 494.74,323.64 501.76,329.41 508.77,336.46 515.79,345.46 522.81,353.75 529.82,359.98 536.84,360.24 543.85,360.60 550.87,360.77 557.89,360.76 564.90,361.27 571.92,361.30 578.94,360.71 585.95,359.94 592.97,359.37 599.98,360.85 607.00,363.11 614.02,364.82 621.03,368.81 628.05,373.01 635.06,371.09 642.08,373.19 649.10,375.92 656.11,378.27 663.13,379.95 670.15,382.63 677.16,384.36 684.18,385.10 691.19,383.80 698.21,379.90 705.23,378.44 712.24,380.33 719.26,385.91 726.27,393.16 733.29,396.72 740.31,395.94 747.32,393.00 754.34,391.26 761.35,392.38 768.37,397.60 775.39,401.94 782.40,404.04 789.42,405.34 796.44,406.71 803.45,405.21 810.47,403.09 817.48,401.57 824.50,401.48 831.52,401.01 838.53,399.47 845.55,398.70 852.56,399.87 859.58,400.09 866.60,403.09 873.61,407.95 880.63,412.30 887.65,414.28 894.66,421.43 901.68,424.84 908.69,424.22 915.71,422.64 922.73,418.35 929.74,409.58 936.76,405.40 943.77,404.80 950.79,406.35 957.81,409.22 964.82,407.51 971.84,406.95 978.85,409.55 985.87,412.81 992.89,413.35 999.90,410.80 1006.92,406.30 1013.94,401.81 1020.95,399.30 1027.97,396.00 1034.98,393.17 1042.00,391.41 1049.02,390.15 1056.03,391.25 1063.05,395.13 1070.06,398.93 1077.08,401.68 1084.10,407.33 1091.11,410.08 1098.13,412.30 1105.15,413.69 1112.16,412.72 1119.18,411.22 1126.19,408.82 1133.21,407.15 1140.23,408.79 1147.24,412.44 1154.26,413.99 1161.27,415.74 1168.29,416.22 1175.31,418.29 1182.32,419.54 1189.34,422.93 1196.35,422.89 1203.37,415.29 1210.39,404.84 1217.40,405.63 1224.42,411.09 1231.44,415.98 1238.45,415.90 1245.47,414.02 1252.48,412.36 1259.50,413.25 1266.52,416.88 1273.53,419.41 1280.55,421.22 1287.56,422.22 1294.58,422.42 1301.60,422.62 1308.61,419.35 1315.63,417.97 1322.65,420.39 1329.66,423.44 1336.68,422.46 1343.69,416.78 1350.71,407.73 1357.73,395.29 1364.74,383.53 1371.76,380.51 1378.77,389.53 1385.79,405.22 1392.81,422.27 1399.82,437.34 1406.84,446.14 1413.85,454.63 1420.87,458.35 1427.89,456.16 1434.90,454.21 1441.92,452.29 1448.94,453.95 1455.95,470.40 1462.97,505.26 1469.98,537.30 1477.00,570.10 1477.00,609.24 1469.98,573.50 1462.97,539.92 1455.95,507.22 1448.94,489.20 1441.92,485.40 1434.90,491.85 1427.89,495.64 1420.87,500.37 1413.85,499.75 1406.84,490.75 1399.82,479.26 1392.81,463.35 1385.79,449.07 1378.77,442.44 1371.76,442.40 1364.74,447.58 1357.73,459.10 1350.71,472.00 1343.69,483.36 1336.68,488.91 1329.66,490.82 1322.65,490.12 1315.63,485.92 1308.61,479.88 1301.60,474.00 1294.58,471.59 1287.56,468.98 1280.55,467.17 1273.53,471.23 1266.52,469.77 1259.50,467.63 1252.48,466.91 1245.47,464.53 1238.45,456.85 1231.44,457.64 1224.42,462.79 1217.40,467.62 1210.39,466.81 1203.37,462.72 1196.35,458.90 1189.34,459.48 1182.32,464.62 1175.31,468.07 1168.29,467.28 1161.27,467.29 1154.26,468.97 1147.24,470.78 1140.23,471.02 1133.21,470.32 1126.19,466.36 1119.18,458.16 1112.16,450.50 1105.15,444.68 1098.13,438.80 1091.11,437.52 1084.10,440.38 1077.08,441.95 1070.06,449.48 1063.05,459.61 1056.03,468.83 1049.02,475.14 1042.00,484.97 1034.98,486.89 1027.97,482.74 1020.95,477.41 1013.94,473.31 1006.92,462.60 999.90,452.76 992.89,445.20 985.87,440.07 978.85,441.55 971.84,442.84 964.82,442.06 957.81,441.50 950.79,444.98 943.77,453.55 936.76,459.64 929.74,463.99 922.73,470.30 915.71,470.57 908.69,466.96 901.68,464.15 894.66,461.15 887.65,457.38 880.63,455.48 873.61,450.42 866.60,444.11 859.58,437.11 852.56,432.51 845.55,431.78 838.53,433.31 831.52,438.13 824.50,441.93 817.48,441.05 810.47,437.29 803.45,432.07 796.44,429.94 789.42,429.66 782.40,430.40 775.39,434.15 768.37,437.95 761.35,440.75 754.34,443.04 747.32,441.49 740.31,437.91 733.29,434.01 726.27,434.80 719.26,434.93 712.24,433.92 705.23,432.66 698.21,428.63 691.19,423.49 684.18,423.53 677.16,423.11 670.15,422.66 663.13,421.88 656.11,421.30 649.10,422.64 642.08,422.34 635.06,421.22 628.05,421.39 621.03,418.25 614.02,416.56 607.00,415.94 599.98,414.52 592.97,412.90 585.95,409.96 578.94,407.00 571.92,405.62 564.90,401.33 557.89,397.43 550.87,393.72 543.85,388.15 536.84,382.32 529.82,375.96 522.81,373.64 515.79,373.69 508.77,373.77 501.76,373.89 494.74,368.91 487.73,363.55 480.71,358.53 473.69,352.46 466.68,350.26 459.66,353.39 452.65,358.64 445.63,366.44 438.61,373.45 431.60,377.87 424.58,380.07 417.56,379.43 410.55,377.70 403.53,376.74 396.52,371.01 389.50,361.08 382.48,347.89 375.47,333.90 368.45,325.11 361.44,318.33 354.42,313.42 347.40,312.08 340.39,315.40 333.37,318.11 326.35,324.20 319.34,331.05 312.32,333.62 305.31,335.72 298.29,337.24 291.27,335.96 284.26,333.92 277.24,334.98 270.23,331.54 263.21,333.20 256.19,333.25 249.18,338.78 242.16,340.82 235.15,347.94 228.13,350.06 221.11,357.76 214.10,360.17 207.08,364.82 200.06,362.82 193.05,353.40 186.03,350.17 179.02,349.97 172.00,350.38" fill="#277da1" opacity="0.13"/>
<path d="M 172.00 339.98 L 179.02 342.55 L 186.03 345.37 L 193.05 348.97 L 200.06 357.66 L 207.08 361.12 L 214.10 354.98 L 221.11 350.85 L 228.13 341.09 L 235.15 337.81 L 242.16 329.47 L 249.18 327.90 L 256.19 323.43 L 263.21 323.78 L 270.23 321.03 L 277.24 322.44 L 284.26 319.45 L 291.27 318.93 L 298.29 317.41 L 305.31 313.63 L 312.32 311.00 L 319.34 308.08 L 326.35 302.52 L 333.37 298.27 L 340.39 296.43 L 347.40 294.06 L 354.42 295.96 L 361.44 301.54 L 368.45 309.52 L 375.47 317.76 L 382.48 328.56 L 389.50 338.19 L 396.52 346.02 L 403.53 352.68 L 410.55 356.13 L 417.56 357.81 L 424.58 356.93 L 431.60 353.14 L 438.61 348.98 L 445.63 342.02 L 452.65 335.67 L 459.66 332.22 L 466.68 330.51 L 473.69 332.28 L 480.71 337.09 L 487.73 341.19 L 494.74 346.28 L 501.76 351.65 L 508.77 355.11 L 515.79 359.58 L 522.81 363.69 L 529.82 367.97 L 536.84 371.28 L 543.85 374.37 L 550.87 377.24 L 557.89 379.10 L 564.90 381.30 L 571.92 383.46 L 578.94 383.85 L 585.95 384.95 L 592.97 386.14 L 599.98 387.68 L 607.00 389.52 L 614.02 390.69 L 621.03 393.53 L 628.05 397.20 L 635.06 396.15 L 642.08 397.77 L 649.10 399.28 L 656.11 399.79 L 663.13 400.91 L 670.15 402.64 L 677.16 403.74 L 684.18 404.31 L 691.19 403.65 L 698.21 404.27 L 705.23 405.55 L 712.24 407.13 L 719.26 410.42 L 726.27 413.98 L 733.29 415.36 L 740.31 416.92 L 747.32 417.25 L 754.34 417.15 L 761.35 416.57 L 768.37 417.77 L 775.39 418.05 L 782.40 417.22 L 789.42 417.50 L 796.44 418.32 L 803.45 418.64 L 810.47 420.19 L 817.48 421.31 L 824.50 421.70 L 831.52 419.57 L 838.53 416.39 L 845.55 415.24 L 852.56 416.19 L 859.58 418.60 L 866.60 423.60 L 873.61 429.19 L 880.63 433.89 L 887.65 435.83 L 894.66 441.29 L 901.68 444.50 L 908.69 445.59 L 915.71 446.61 L 922.73 444.32 L 929.74 436.79 L 936.76 432.52 L 943.77 429.18 L 950.79 425.66 L 957.81 425.36 L 964.82 424.79 L 971.84 424.89 L 978.85 425.55 L 985.87 426.44 L 992.89 429.27 L 999.90 431.78 L 1006.92 434.45 L 1013.94 437.56 L 1020.95 438.35 L 1027.97 439.37 L 1034.98 440.03 L 1042.00 438.19 L 1049.02 432.64 L 1056.03 430.04 L 1063.05 427.37 L 1070.06 424.20 L 1077.08 421.81 L 1084.10 423.86 L 1091.11 423.80 L 1098.13 425.55 L 1105.15 429.19 L 1112.16 431.61 L 1119.18 434.69 L 1126.19 437.59 L 1133.21 438.73 L 1140.23 439.91 L 1147.24 441.61 L 1154.26 441.48 L 1161.27 441.52 L 1168.29 441.75 L 1175.31 443.18 L 1182.32 442.08 L 1189.34 441.21 L 1196.35 440.89 L 1203.37 439.00 L 1210.39 435.82 L 1217.40 436.62 L 1224.42 436.94 L 1231.44 436.81 L 1238.45 436.38 L 1245.47 439.28 L 1252.48 439.64 L 1259.50 440.44 L 1266.52 443.33 L 1273.53 445.32 L 1280.55 444.19 L 1287.56 445.60 L 1294.58 447.00 L 1301.60 448.31 L 1308.61 449.61 L 1315.63 451.95 L 1322.65 455.25 L 1329.66 457.13 L 1336.68 455.69 L 1343.69 450.07 L 1350.71 439.86 L 1357.73 427.20 L 1364.74 415.55 L 1371.76 411.45 L 1378.77 415.98 L 1385.79 427.15 L 1392.81 442.81 L 1399.82 458.30 L 1406.84 468.45 L 1413.85 477.19 L 1420.87 479.36 L 1427.89 475.90 L 1434.90 473.03 L 1441.92 468.84 L 1448.94 471.57 L 1455.95 488.81 L 1462.97 522.59 L 1469.98 555.40 L 1477.00 589.67" fill="none" stroke="#277da1" stroke-width="2.4" stroke-linejoin="round"/>
<polygon points="172.00,328.75 179.02,334.90 186.03,341.78 193.05,343.33 200.06,351.20 207.08,356.16 214.10,356.34 221.11,352.78 228.13,341.88 235.15,335.79 242.16,330.11 249.18,328.59 256.19,328.48 263.21,330.08 270.23,328.21 277.24,327.78 284.26,324.65 291.27,322.02 298.29,320.33 305.31,318.07 312.32,317.08 319.34,316.52 326.35,315.19 333.37,315.14 340.39,316.40 347.40,317.77 354.42,322.11 361.44,328.82 368.45,337.62 375.47,350.11 382.48,364.99 389.50,378.96 396.52,389.84 403.53,396.14 410.55,397.53 417.56,397.88 424.58,393.31 431.60,384.42 438.61,376.83 445.63,368.79 452.65,364.89 459.66,362.31 466.68,358.86 473.69,360.51 480.71,363.39 487.73,365.47 494.74,369.72 501.76,374.71 508.77,373.87 515.79,370.86 522.81,367.88 529.82,367.08 536.84,369.44 543.85,373.53 550.87,374.74 557.89,373.21 564.90,372.54 571.92,369.48 578.94,371.15 585.95,376.24 592.97,381.44 599.98,386.65 607.00,392.21 614.02,391.60 621.03,389.40 628.05,388.11 635.06,385.94 642.08,383.28 649.10,378.43 656.11,374.54 663.13,374.96 670.15,378.67 677.16,384.01 684.18,389.40 691.19,392.80 698.21,395.04 705.23,396.96 712.24,398.85 719.26,400.91 726.27,401.23 733.29,401.00 740.31,399.29 747.32,397.41 754.34,397.15 761.35,397.48 768.37,398.31 775.39,400.34 782.40,401.76 789.42,402.24 796.44,403.36 803.45,405.93 810.47,408.64 817.48,408.59 824.50,410.16 831.52,408.62 838.53,405.43 845.55,405.44 852.56,405.71 859.58,404.13 866.60,403.61 873.61,401.28 880.63,398.79 887.65,396.29 894.66,393.20 901.68,389.40 908.69,387.43 915.71,389.20 922.73,392.00 929.74,397.62 936.76,405.01 943.77,409.84 950.79,411.32 957.81,413.97 964.82,414.00 971.84,410.68 978.85,406.11 985.87,401.43 992.89,396.31 999.90,393.93 1006.92,393.74 1013.94,393.70 1020.95,392.17 1027.97,395.01 1034.98,396.63 1042.00,393.94 1049.02,388.41 1056.03,386.33 1063.05,386.87 1070.06,390.27 1077.08,396.46 1084.10,405.89 1091.11,410.61 1098.13,413.62 1105.15,415.41 1112.16,414.13 1119.18,412.94 1126.19,412.89 1133.21,410.97 1140.23,407.85 1147.24,406.84 1154.26,403.97 1161.27,405.02 1168.29,407.53 1175.31,411.02 1182.32,412.57 1189.34,414.97 1196.35,415.67 1203.37,412.34 1210.39,409.29 1217.40,408.31 1224.42,406.67 1231.44,405.15 1238.45,401.06 1245.47,395.31 1252.48,389.97 1259.50,385.53 1266.52,384.47 1273.53,386.58 1280.55,389.05 1287.56,394.37 1294.58,399.71 1301.60,404.00 1308.61,405.32 1315.63,404.89 1322.65,403.29 1329.66,400.04 1336.68,393.27 1343.69,385.78 1350.71,377.76 1357.73,363.78 1364.74,344.29 1371.76,327.51 1378.77,318.63 1385.79,319.60 1392.81,328.20 1399.82,337.12 1406.84,340.41 1413.85,345.16 1420.87,347.60 1427.89,346.78 1434.90,344.05 1441.92,339.05 1448.94,338.96 1455.95,351.16 1462.97,372.33 1469.98,391.57 1477.00,410.92 1477.00,569.53 1469.98,526.28 1462.97,484.42 1455.95,443.22 1448.94,419.98 1441.92,411.79 1434.90,412.61 1427.89,413.96 1420.87,415.75 1413.85,411.93 1406.84,402.39 1399.82,391.46 1392.81,381.19 1385.79,378.27 1378.77,379.75 1371.76,382.07 1364.74,388.49 1357.73,400.34 1350.71,414.98 1343.69,428.16 1336.68,430.67 1329.66,429.76 1322.65,427.95 1315.63,425.86 1308.61,428.48 1301.60,435.29 1294.58,438.95 1287.56,439.82 1280.55,437.58 1273.53,435.52 1266.52,429.99 1259.50,424.95 1252.48,424.14 1245.47,425.71 1238.45,426.37 1231.44,429.68 1224.42,435.89 1217.40,442.24 1210.39,443.83 1203.37,443.23 1196.35,443.10 1189.34,441.90 1182.32,440.79 1175.31,440.28 1168.29,439.31 1161.27,438.92 1154.26,438.53 1147.24,438.18 1140.23,437.13 1133.21,437.08 1126.19,441.63 1119.18,446.73 1112.16,451.01 1105.15,452.03 1098.13,448.07 1091.11,443.89 1084.10,440.17 1077.08,433.78 1070.06,434.31 1063.05,435.10 1056.03,434.84 1049.02,434.60 1042.00,433.83 1034.98,437.31 1027.97,442.58 1020.95,444.67 1013.94,443.28 1006.92,442.66 999.90,441.45 992.89,440.41 985.87,439.29 978.85,439.04 971.84,437.46 964.82,436.97 957.81,439.38 950.79,435.85 943.77,434.74 936.76,434.33 929.74,433.72 922.73,435.73 915.71,436.07 908.69,435.91 901.68,436.76 894.66,435.49 887.65,434.01 880.63,436.83 873.61,437.85 866.60,438.57 859.58,438.43 852.56,440.18 845.55,441.52 838.53,440.58 831.52,439.72 824.50,441.31 817.48,439.95 810.47,439.19 803.45,438.57 796.44,436.07 789.42,430.38 782.40,427.13 775.39,427.09 768.37,426.65 761.35,425.83 754.34,425.35 747.32,423.88 740.31,423.55 733.29,423.59 726.27,424.75 719.26,427.93 712.24,429.23 705.23,428.68 698.21,426.51 691.19,424.15 684.18,421.95 677.16,420.05 670.15,418.80 663.13,416.99 656.11,413.20 649.10,410.98 642.08,410.76 635.06,414.55 628.05,423.57 621.03,426.81 614.02,426.78 607.00,426.39 599.98,426.42 592.97,427.23 585.95,426.60 578.94,424.82 571.92,422.61 564.90,416.40 557.89,409.95 550.87,406.22 543.85,405.95 536.84,408.20 529.82,408.09 522.81,406.65 515.79,404.45 508.77,401.42 501.76,402.68 494.74,404.34 487.73,406.26 480.71,406.17 473.69,399.21 466.68,392.01 459.66,388.86 452.65,388.69 445.63,393.95 438.61,402.65 431.60,410.04 424.58,417.69 417.56,424.31 410.55,428.13 403.53,427.11 396.52,419.87 389.50,409.30 382.48,395.82 375.47,380.09 368.45,366.05 361.44,352.80 354.42,343.36 347.40,338.85 340.39,339.29 333.37,340.86 326.35,344.70 319.34,348.99 312.32,351.67 305.31,349.80 298.29,347.29 291.27,346.45 284.26,346.35 277.24,345.55 270.23,347.36 263.21,350.60 256.19,348.93 249.18,352.65 242.16,352.63 235.15,355.16 228.13,358.00 221.11,364.85 214.10,368.10 207.08,374.00 200.06,370.40 193.05,357.74 186.03,355.02 179.02,358.76 172.00,365.83" fill="#e45756" opacity="0.13"/>
<path d="M 172.00 347.29 L 179.02 346.83 L 186.03 348.40 L 193.05 350.53 L 200.06 360.80 L 207.08 365.08 L 214.10 362.22 L 221.11 358.81 L 228.13 349.94 L 235.15 345.47 L 242.16 341.37 L 249.18 340.62 L 256.19 338.71 L 263.21 340.34 L 270.23 337.78 L 277.24 336.67 L 284.26 335.50 L 291.27 334.23 L 298.29 333.81 L 305.31 333.93 L 312.32 334.38 L 319.34 332.75 L 326.35 329.95 L 333.37 328.00 L 340.39 327.85 L 347.40 328.31 L 354.42 332.73 L 361.44 340.81 L 368.45 351.84 L 375.47 365.10 L 382.48 380.41 L 389.50 394.13 L 396.52 404.85 L 403.53 411.63 L 410.55 412.83 L 417.56 411.10 L 424.58 405.50 L 431.60 397.23 L 438.61 389.74 L 445.63 381.37 L 452.65 376.79 L 459.66 375.59 L 466.68 375.43 L 473.69 379.86 L 480.71 384.78 L 487.73 385.87 L 494.74 387.03 L 501.76 388.70 L 508.77 387.64 L 515.79 387.66 L 522.81 387.26 L 529.82 387.59 L 536.84 388.82 L 543.85 389.74 L 550.87 390.48 L 557.89 391.58 L 564.90 394.47 L 571.92 396.04 L 578.94 397.98 L 585.95 401.42 L 592.97 404.33 L 599.98 406.54 L 607.00 409.30 L 614.02 409.19 L 621.03 408.10 L 628.05 405.84 L 635.06 400.24 L 642.08 397.02 L 649.10 394.70 L 656.11 393.87 L 663.13 395.98 L 670.15 398.74 L 677.16 402.03 L 684.18 405.68 L 691.19 408.48 L 698.21 410.78 L 705.23 412.82 L 712.24 414.04 L 719.26 414.42 L 726.27 412.99 L 733.29 412.29 L 740.31 411.42 L 747.32 410.64 L 754.34 411.25 L 761.35 411.66 L 768.37 412.48 L 775.39 413.72 L 782.40 414.44 L 789.42 416.31 L 796.44 419.72 L 803.45 422.25 L 810.47 423.92 L 817.48 424.27 L 824.50 425.73 L 831.52 424.17 L 838.53 423.00 L 845.55 423.48 L 852.56 422.95 L 859.58 421.28 L 866.60 421.09 L 873.61 419.57 L 880.63 417.81 L 887.65 415.15 L 894.66 414.35 L 901.68 413.08 L 908.69 411.67 L 915.71 412.64 L 922.73 413.87 L 929.74 415.67 L 936.76 419.67 L 943.77 422.29 L 950.79 423.59 L 957.81 426.67 L 964.82 425.48 L 971.84 424.07 L 978.85 422.57 L 985.87 420.36 L 992.89 418.36 L 999.90 417.69 L 1006.92 418.20 L 1013.94 418.49 L 1020.95 418.42 L 1027.97 418.79 L 1034.98 416.97 L 1042.00 413.88 L 1049.02 411.51 L 1056.03 410.58 L 1063.05 410.98 L 1070.06 412.29 L 1077.08 415.12 L 1084.10 423.03 L 1091.11 427.25 L 1098.13 430.84 L 1105.15 433.72 L 1112.16 432.57 L 1119.18 429.83 L 1126.19 427.26 L 1133.21 424.02 L 1140.23 422.49 L 1147.24 422.51 L 1154.26 421.25 L 1161.27 421.97 L 1168.29 423.42 L 1175.31 425.65 L 1182.32 426.68 L 1189.34 428.43 L 1196.35 429.39 L 1203.37 427.78 L 1210.39 426.56 L 1217.40 425.27 L 1224.42 421.28 L 1231.44 417.42 L 1238.45 413.71 L 1245.47 410.51 L 1252.48 407.05 L 1259.50 405.24 L 1266.52 407.23 L 1273.53 411.05 L 1280.55 413.31 L 1287.56 417.10 L 1294.58 419.33 L 1301.60 419.65 L 1308.61 416.90 L 1315.63 415.37 L 1322.65 415.62 L 1329.66 414.90 L 1336.68 411.97 L 1343.69 406.97 L 1350.71 396.37 L 1357.73 382.06 L 1364.74 366.39 L 1371.76 354.79 L 1378.77 349.19 L 1385.79 348.94 L 1392.81 354.69 L 1399.82 364.29 L 1406.84 371.40 L 1413.85 378.55 L 1420.87 381.68 L 1427.89 380.37 L 1434.90 378.33 L 1441.92 375.42 L 1448.94 379.47 L 1455.95 397.19 L 1462.97 428.37 L 1469.98 458.93 L 1477.00 490.23" fill="none" stroke="#e45756" stroke-width="2.4" stroke-linejoin="round"/>
<line x1="1477.00" y1="210" x2="1477.00" y2="700" stroke="#8d97a8" stroke-width="1.2"/>
<rect x="1167.00" y="225" width="300" height="55" rx="9" fill="#ffffff" opacity="0.93" stroke="#dfe5ee"/>
<text x="1182" y="259" font-family="Microsoft YaHei, Segoe UI, sans-serif" font-size="16" font-weight="500" fill="#657085" text-anchor="start">最大均值差 1880 mm · 0.710 Pa</text>
<text x="824.5" y="772" font-family="Microsoft YaHei, Segoe UI, sans-serif" font-size="18" font-weight="500" fill="#172033" text-anchor="middle">滑台距离 (mm)</text>
<text x="112" y="455.0" transform="rotate(-90 112 455.0)" font-family="Microsoft YaHei, Segoe UI, sans-serif" font-size="18" font-weight="500" fill="#172033" text-anchor="middle">压力 (Pa)</text>
<text x="80" y="835" font-family="Microsoft YaHei, Segoe UI, sans-serif" font-size="16" font-weight="400" fill="#657085" text-anchor="start">两组各10次实验；全程均值曲线 RMS 差异 0.253 Pa；晚段斜坡逐试次留一验证 95.0%。</text>
</svg>